{"title":"Ken_Park[2002]-Maka6358","uid":4770306,"size":733954763,"categoryP":"video","categoryS":"movies","magnet":"?xt=urn:btih:319f47cff3c0b37300e7d57a4f0e7c24c820f888&amp;dn=Ken_Park%5B2002%5D-Maka6358&amp;tr=udp%3A%2F%2Ftracker.openbittorrent.com%3A80&amp;tr=udp%3A%2F%2Fopen.demonii.com%3A1337&amp;tr=udp%3A%2F%2Ftracker.coppersurfer.tk%3A6969&amp;tr=udp%3A%2F%2Fexodus.desync.com%3A6969","seeders":4,"leechers":3,"uploader":"Maka6358","files":2,"time":1237021777,"description":"Ken Park (2002) \nKen Park focuses on several teenagers and their tormented home lives. Shawn seems to be the most conventional. Tate is brimming with psychotic rage; Claude is habitually harassed by his brutish father and coddled, rather uncomfortably, by his enormously pregnant mother. Peaches looks after her devoutly religious father, but yearns for freedom. They're all rather tight, or so they claim. But they spend precious little time together and none of them seems to know much about one another's family lives. This bizarre dichotomy underscores their alienation # the result of suburban ennui, a teenager's inherent sense of melodrama, and the disturbing nature of their home environments.  \n\n \n\nGeneral\nComplete name                    : Ken_Park[2002]-Maka6358Ken_Park[2002]-Maka6358.avi\nFormat                           : AVI\nFormat/Info                      : Audio Video Interleave\nFile size                        : 700 MiB\nDuration                         : 1h 29mn\nOverall bit rate                 : 1 095 Kbps\n\nVideo\nFormat                           : MPEG-4 Visual\nFormat profile                   : Streaming Video@L1\nFormat settings, BVOP            : Yes\nFormat settings, QPel            : No\nFormat settings, GMC             : No warppoints\nFormat settings, Matrix          : Custom\nCodec ID                         : XVID\nCodec ID/Hint                    : XviD\nDuration                         : 1h 29mn\nBit rate                         : 968 Kbps\nWidth                            : 720 pixels\nHeight                           : 416 pixels\nDisplay aspect ratio             : 16/9\nFrame rate                       : 25.000 fps\nResolution                       : 24 bits\nColorimetry                      : 4:2:0\nScan type                        : Progressive\nBits/(Pixel*Frame)               : 0.129\nStream size                      : 619 MiB (88%)\nWriting library                  : XviD 1.2.0.dev47 (UTC 2006-11-01)\n\nAudio\nFormat                           : MPEG Audio\nFormat version                   : Version 1\nFormat profile                   : Layer 3\nCodec ID                         : 55\nCodec ID/Hint                    : MP3\nDuration                         : 1h 29mn\nBit rate mode                    : Variable\nBit rate                         : 114 Kbps\nMinimum bit rate                 : 128 Kbps\nChannel(s)                       : 2 channels\nSampling rate                    : 48.0 KHz\nResolution                       : 16 bits\nStream size                      : 72.6 MiB (10%)\nAlignment                        : Aligned on interleaves\nInterleave, duration             : 24 ms (0.60 video frame)\nInterleave, preload duration     : 162 ms\nWriting library                  : LAME3.97 \nEncoding settings                : ABR\nLanguage                         : English\n\nInfo Hash                        : 319F47CFF3C0B37300E7D57A4F0E7C24C820F888","torrent":{"xt":"urn:btih:319f47cff3c0b37300e7d57a4f0e7c24c820f888","amp;dn":"Ken_Park%5B2002%5D-Maka6358","amp;tr":["udp%3A%2F%2Ftracker.openbittorrent.com%3A80","udp%3A%2F%2Fopen.demonii.com%3A1337","udp%3A%2F%2Ftracker.coppersurfer.tk%3A6969","udp%3A%2F%2Fexodus.desync.com%3A6969"],"infoHash":"319f47cff3c0b37300e7d57a4f0e7c24c820f888","infoHashBuffer":{"type":"Buffer","data":[49,159,71,207,243,192,179,115,0,231,213,122,79,14,124,36,200,32,248,136]},"announce":[],"urlList":[]}}